<?xml version="1.0" encoding="iso-8859-1"?>
<!-- Generator: Adobe Illustrator 17.1.0, SVG Export Plug-In . SVG Version: 6.00 Build 0)  -->
<!DOCTYPE svg PUBLIC "-//W3C//DTD SVG 1.1//EN" "http://www.w3.org/Graphics/SVG/1.1/DTD/svg11.dtd">
<svg version="1.1" id="Capa_1" xmlns="http://www.w3.org/2000/svg" xmlns:xlink="http://www.w3.org/1999/xlink" x="0px" y="0px"
	 viewBox="0 0 442 442" style="enable-background:new 0 0 442 442;" xml:space="preserve">
<g>
	<path d="M221,80.231c5.79,0,10.5-4.71,10.5-10.5s-4.71-10.5-10.5-10.5s-10.5,4.71-10.5,10.5S215.21,80.231,221,80.231z"/>
	<path d="M372,280.188h-98c-5.522,0-10,4.477-10,10s4.478,10,10,10h98c5.522,0,10-4.477,10-10S377.522,280.188,372,280.188z"/>
	<path d="M372,230.188h-98c-5.522,0-10,4.477-10,10s4.478,10,10,10h98c5.522,0,10-4.477,10-10S377.522,230.188,372,230.188z"/>
	<path d="M392,93.269H258.5V39.231c0-5.523-4.478-10-10-10h-55c-5.522,0-10,4.477-10,10v54.037H50c-27.57,0-50,22.43-50,50v219.5
		c0,27.57,22.43,50,50,50h342c27.57,0,50-22.43,50-50v-219.5C442,115.698,419.57,93.269,392,93.269z M203.5,49.231h35v73.956h-35
		V49.231z M422,362.769c0,16.542-13.458,30-30,30H50c-16.542,0-30-13.458-30-30v-219.5c0-16.542,13.458-30,30-30h133.5v9.919h-10
		c-5.522,0-10,4.477-10,10s4.478,10,10,10h95c5.522,0,10-4.477,10-10s-4.478-10-10-10h-10v-9.919H392c16.542,0,30,13.458,30,30
		V362.769z"/>
	<path d="M100,297.188c0,5.523,4.478,10,10,10h64c5.522,0,10-4.477,10-10s-4.478-10-10-10h-64
		C104.478,287.188,100,291.665,100,297.188z"/>
	<path d="M172,247.188c0-16.542-13.458-30-30-30s-30,13.458-30,30s13.458,30,30,30S172,263.729,172,247.188z M132,247.188
		c0-5.514,4.486-10,10-10s10,4.486,10,10s-4.486,10-10,10S132,252.702,132,247.188z"/>
	<path d="M214,183.188H70c-5.522,0-10,4.477-10,10v144c0,5.523,4.478,10,10,10h144c5.522,0,10-4.477,10-10v-31.892
		c0-5.523-4.478-10-10-10s-10,4.477-10,10v21.892H80v-124h124v68c0,5.523,4.478,10,10,10s10-4.477,10-10v-78
		C224,187.665,219.522,183.188,214,183.188z"/>
</g>
<g>
</g>
<g>
</g>
<g>
</g>
<g>
</g>
<g>
</g>
<g>
</g>
<g>
</g>
<g>
</g>
<g>
</g>
<g>
</g>
<g>
</g>
<g>
</g>
<g>
</g>
<g>
</g>
<g>
</g>
</svg>
